<?xml version="1.0" encoding="UTF-8"?>
<!DOCTYPE svg PUBLIC "-//W3C//DTD SVG 1.1//EN" "http://www.w3.org/Graphics/SVG/1.1/DTD/svg11.dtd">
<svg version="1.1" xmlns="http://www.w3.org/2000/svg" xmlns:xlink="http://www.w3.org/1999/xlink" x="0" y="0" width="60" height="60" viewBox="0, 0, 60, 60">
  <g id="Layer_1">
    <path d="M19.68,21.441 C20.12,15.923 23.873,13.126 30,13.126 C36.126,13.126 39.881,15.923 40.32,21.441 C40.562,24.462 38.823,26.475 36.479,29.774 C34.751,32.208 32.709,35.08 31.756,38.818 L28.243,38.818 C27.29,35.08 25.249,32.208 23.52,29.774 C21.177,26.475 19.439,24.462 19.68,21.441 M35.725,42.524 C35.725,33.275 45.554,30.319 44.819,21.106 C44.355,15.293 40.417,8.772 30,8.772 C19.583,8.772 15.646,15.293 15.181,21.106 C14.445,30.319 24.275,33.275 24.275,42.524 z M24.025,49.465 C25.699,50.549 27.638,51.282 30,51.225 C32.36,51.282 34.3,50.549 35.974,49.465 L35.974,45.072 L24.025,45.072 z" fill="#000000"/>
  </g>
</svg>
