<?xml version="1.0" encoding="UTF-8"?>
<!DOCTYPE svg PUBLIC "-//W3C//DTD SVG 1.1//EN" "http://www.w3.org/Graphics/SVG/1.1/DTD/svg11.dtd">
<svg version="1.1" xmlns="http://www.w3.org/2000/svg" xmlns:xlink="http://www.w3.org/1999/xlink" x="0" y="0" width="80" height="80" viewBox="0, 0, 80, 80">
  <g id="Layer_1">
    <path d="M39.356,28.38 L20.16,47.456 L32.029,47.456 L32.029,71.21 L46.682,71.21 L46.682,47.456 L58.551,47.456 z M71.289,12.74 L23.658,12.74 L23.658,7.833 L71.289,7.833 z M18.198,13.174 C16.558,13.174 15.231,11.882 15.231,10.286 C15.231,8.691 16.558,7.399 18.198,7.399 C19.838,7.399 21.165,8.691 21.165,10.286 C21.165,11.882 19.838,13.174 18.198,13.174 M10.286,13.174 C8.646,13.174 7.319,11.882 7.319,10.286 C7.319,8.691 8.646,7.399 10.286,7.399 C11.925,7.399 13.253,8.691 13.253,10.286 C13.253,11.882 11.925,13.174 10.286,13.174 M71.21,0 L7.912,0 C3.561,0 0,3.561 0,7.912 L0,55.386 C0,59.737 3.561,63.219 7.912,63.219 L23.658,63.219 L23.658,55.464 L7.833,55.464 L7.833,18.989 L71.289,18.989 L71.289,55.464 L55.464,55.464 L55.464,63.219 L71.21,63.219 C75.562,63.219 79.122,59.737 79.122,55.386 L79.122,7.912 C79.122,3.561 75.562,0 71.21,0" fill="#FFFFFF"/>
  </g>
</svg>
