<?xml version="1.0" encoding="UTF-8"?>
<!DOCTYPE svg PUBLIC "-//W3C//DTD SVG 1.1//EN" "http://www.w3.org/Graphics/SVG/1.1/DTD/svg11.dtd">
<svg version="1.1" xmlns="http://www.w3.org/2000/svg" xmlns:xlink="http://www.w3.org/1999/xlink" x="0" y="0" width="60" height="60" viewBox="0, 0, 60, 60">
  <g id="Layer_1">
    <path d="M33.429,39.352 L26.57,39.352 L26.57,20.646 L33.429,20.646 z M33.429,50.265 L26.57,50.265 L26.57,44.029 L33.429,44.029 z M59.653,53.322 L31.883,4.587 C31.5,3.915 30.78,3.5 29.999,3.5 C29.219,3.5 28.499,3.915 28.117,4.587 L0.349,53.322 C-0.028,53.983 -0.022,54.79 0.366,55.444 C0.753,56.098 1.464,56.5 2.231,56.5 L57.77,56.5 C58.536,56.5 59.246,56.098 59.635,55.444 C60.022,54.79 60.028,53.983 59.653,53.322" fill="#C0392B"/>
  </g>
</svg>
