<?xml version="1.0" encoding="UTF-8"?>
<!DOCTYPE svg PUBLIC "-//W3C//DTD SVG 1.1//EN" "http://www.w3.org/Graphics/SVG/1.1/DTD/svg11.dtd">
<svg version="1.1" xmlns="http://www.w3.org/2000/svg" xmlns:xlink="http://www.w3.org/1999/xlink" x="0" y="0" width="60" height="60" viewBox="0, 0, 60, 60">
  <g id="Layer_1">
    <path d="M26.814,42.206 C25.458,42.206 24.463,41.383 25.413,37.762 L26.969,31.341 C27.24,30.312 27.285,29.901 26.969,29.901 C26.562,29.901 24.801,30.611 23.761,31.311 L23.083,30.2 C26.383,27.444 30.178,25.827 31.805,25.827 C33.162,25.827 33.387,27.432 32.71,29.901 L30.927,36.651 C30.611,37.845 30.747,38.256 31.062,38.256 C31.47,38.256 32.803,37.76 34.114,36.731 L34.882,37.76 C31.672,40.97 28.17,42.206 26.814,42.206 M31.904,16.98 C33.889,16.98 34.475,18.132 34.475,19.449 C34.475,21.095 33.157,22.617 30.91,22.617 C29.029,22.617 28.135,21.67 28.187,20.107 C28.187,18.79 29.291,16.98 31.904,16.98 M29.738,10.472 C18.954,10.616 10.329,19.477 10.472,30.263 C10.616,41.044 19.476,49.671 30.261,49.528 C41.044,49.383 49.671,40.522 49.528,29.737 C49.384,18.956 40.523,10.328 29.738,10.472" fill="#000000"/>
  </g>
</svg>
