<?xml version="1.0" encoding="UTF-8"?>
<!DOCTYPE svg PUBLIC "-//W3C//DTD SVG 1.1//EN" "http://www.w3.org/Graphics/SVG/1.1/DTD/svg11.dtd">
<svg version="1.1" xmlns="http://www.w3.org/2000/svg" xmlns:xlink="http://www.w3.org/1999/xlink" x="0" y="0" width="60" height="60" viewBox="0, 0, 60, 60">
  <g id="Layer_1">
    <path d="M46.982,38.703 L13.018,38.703 L13.018,15.14 L46.982,15.14 z M46.982,11.319 L13.018,11.319 C10.683,11.319 8.772,13.23 8.772,15.565 L8.772,38.916 C8.772,41.251 10.646,43.536 12.936,43.994 L22.216,45.85 C22.216,45.85 14.229,48.681 19.386,48.681 L40.614,48.681 C45.773,48.681 37.784,45.85 37.784,45.85 L47.066,43.994 C49.355,43.536 51.228,41.251 51.228,38.916 L51.228,15.565 C51.228,13.23 49.317,11.319 46.982,11.319" fill="#000000"/>
  </g>
</svg>
