<?xml version="1.0" encoding="UTF-8"?>
<!DOCTYPE svg PUBLIC "-//W3C//DTD SVG 1.1//EN" "http://www.w3.org/Graphics/SVG/1.1/DTD/svg11.dtd">
<svg version="1.1" xmlns="http://www.w3.org/2000/svg" xmlns:xlink="http://www.w3.org/1999/xlink" x="0" y="0" width="60" height="60" viewBox="0, 0, 60, 60">
  <g id="Layer_1">
    <path d="M19.386,24.604 C17.99,24.604 13.018,25.453 13.018,31.23 L13.018,41.522 C13.018,47.3 17.99,47.937 19.386,47.937 C20.782,47.937 17.263,46.721 17.263,43.141 L17.263,29.612 C17.263,25.858 20.782,24.604 19.386,24.604 M37.744,24.402 C37.465,23.647 45.258,16.687 40.712,11.047 C39.647,9.727 36.039,17.362 30.914,20.819 C28.087,22.726 21.509,26.786 21.509,29.028 L21.509,43.549 C21.509,46.249 31.939,49.105 39.869,49.105 C42.772,49.105 46.982,30.902 46.982,28.01 C46.982,25.107 38.024,25.157 37.744,24.402" fill="#000000"/>
  </g>
</svg>
